# xmcd
#
# Track frame offsets:
#	182
#	17892
#	40545
#	53005
#	66017
#	88700
#	104505
#	124890
#	138817
#	159475
#	172182
#	189800
#	204185
#	219627
#	234175
#	254087
#	270305
#
# Disc length: 3741 seconds
#
# Revision: 3
# Processed by: cddbd v1.5.1PL0 Copyright (c) Steve Scherf et al.
# Submitted via: audiograbber 1.83.01
#
DISCID=e40e9b11
DTITLE=Various Artist - Out Of The Blue
DYEAR=1985
DGENRE=Blues
TTITLE0=Buckwheat Zydeco - Zydeco Boogaloo
TTITLE1=The Nighthawks - Hot Spot
TTITLE2=The Legendary Blues Band - Money
TTITLE3=Roomful Of Blues - Oh, Oh
TTITLE4=Johnny Adams - I Feel Like Breaking Up Somebody's Home
TTITLE5=James Booker - Lawdy Miss Clawdy
TTITLE6=George Thorogood and The Destroyers - Madison Blues
TTITLE7=Ted Hawkins - Bring It Home Daddy
TTITLE8=John Hammond - Red Hot Kisses
TTITLE9=J.B. Hutt and The New Hawks - I'm Leaving You
TTITLE10=Marcia Ball - Eugene
TTITLE11=Duke Robillard and the Pleasure Kings - My Plea
TTITLE12=Clarence Gatemouth Brown - Ain't That Dandy
TTITLE13=The Juke Jumpers - Gonna Bring It To You
TTITLE14=Phillip Walker - Go Ahead And Take Her
TTITLE15=Johnny Copeland - Houston
TTITLE16=Solomon Burke - Cry To Me
EXTD=
EXTT0=
EXTT1=
EXTT2=
EXTT3=
EXTT4=
EXTT5=
EXTT6=
EXTT7=
EXTT8=
EXTT9=
EXTT10=
EXTT11=
EXTT12=
EXTT13=
EXTT14=
EXTT15=
EXTT16=
PLAYORDER=
